<svg id="Laag_2" data-name="Laag 2" xmlns="http://www.w3.org/2000/svg" viewBox="0 0 159.46 159.46"><defs><style>.cls-1,.cls-2{fill:#e31a5c;}.cls-1{stroke:#e31a5c;stroke-miterlimit:10;stroke-width:0.5px;}.cls-2{font-size:31px;font-family:Avenir-Black, Avenir;}.cls-3{letter-spacing:-0.09em;}</style></defs><title>Tekengebied 1</title><path class="cls-1" d="M79.8,20.8c-2.4-1.43-5,2-5,2-5,3-13.34,11.3-14,12C48.62,47.54,37.53,61.45,32.47,67.92c0,0-1.83,1.7-1.67,1.88s11.24-10.51,22-14A46.13,46.13,0,0,1,61.21,54c3.72-.4,5.24,0,6.59-.19.31,0-4.82.65-5,2-.13.94,2.14,1.59,4,3,3.37,2.55,4.11,6.62,5,11,4.48,22.27,4.38,21.15,4,18,2.5,20.66,3.75,31,4,31C82.69,118.92,83.92,23.25,79.8,20.8Z"/><path class="cls-1" d="M69.8,29.79s-.11-5.81,1-9c.78-2.27,3.32-3.53,4.72-4.74l.28-.26-3,5v1Z"/><path class="cls-1" d="M79.8,20.8c2.39-1.43,5,2,5,2,5,3,13.33,11.3,14,12C111,47.54,122.06,61.45,127.12,67.92c0,0,1.83,1.7,1.68,1.88s-11.25-10.51-22-14A46.31,46.31,0,0,0,98.39,54c-3.73-.4-5.25,0-6.59-.19-.32,0,4.81.65,5,2,.12.94-2.15,1.59-4,3-3.38,2.55-4.12,6.62-5,11-4.49,22.27-4.39,21.15-4,18-2.51,20.66-3.76,31-4,31C76.9,118.92,75.67,23.25,79.8,20.8Z"/><path class="cls-1" d="M89.8,29.79s.1-5.81-1-9c-.79-2.27-3.33-3.53-4.72-4.74l-.28-.26,3,5v1Z"/><text class="cls-2" transform="translate(10.69 152.82)">MAN<tspan class="cls-3" x="77.5" y="0">T</tspan><tspan x="92.44" y="0">AX</tspan></text></svg>