<svg id="Layer_1" xmlns="http://www.w3.org/2000/svg" viewBox="0 0 1920 4562" width="1920" height="4562"><style>.st0{opacity:.1}.st1{fill:#8b57df}.st2{opacity:.3;fill:#d0bcf2}.st3{fill:#3e3651}</style><g class="st0"><path transform="rotate(-25.351 1868.1 1732.342)" class="st1" d="M1756.6 1256.9h222.7v950.8h-222.7z"/></g><g class="st0"><path transform="rotate(-36.592 21.919 60.333)" class="st1" d="M-89.4-415.1h222.7v950.8H-89.4z"/></g><g class="st0"><path transform="rotate(-52.893 44.544 3889.384)" class="st1" d="M-430.8 3778.1H520v222.7h-950.8z"/></g><circle class="st2" cx="1806.1" cy="101.8" r="347.1"/><circle class="st2" cx="-86.8" cy="1379.3" r="355.5"/><circle class="st2" cx="1901.9" cy="4242.7" r="339.4"/><g class="st0"><path class="st3" d="M1399.8 464.9l-43.2 153.4c-138.8-39.1-283.4 42-322.5 180.8l-153.4-43.2c30.5-108.2 101.3-198.1 199.3-253 98-55 211.6-68.5 319.8-38z"/></g><g class="st0"><path class="st3" d="M605.9 2584.1L413 2603.8c-17.8-174.5-174.2-301.9-348.7-284.1l-19.7-192.9c136-13.9 269.4 26 375.4 112.4 106 86.3 172 208.8 185.9 344.9z"/></g><g class="st0"><path class="st3" d="M1619.7 2891.7l188.8 23.1c-20.9 170.7 101 326.6 271.7 347.5L2057 3451c-133.1-16.3-251.9-83.5-334.5-189.1s-119.1-237.1-102.8-370.2z"/></g></svg>